HIERARCHY
ROOT hip
{
	OFFSET 0.000000 0.000000 0.000000 
	CHANNELS 6 Xposition Yposition Zposition Xrotation Zrotation Yrotation
	JOINT abdomen
	{
		OFFSET 0.000000 3.402643 0.000000 
		CHANNELS 3 Xrotation Zrotation Yrotation
		JOINT chest
		{
			OFFSET 0.000000 8.438565 -0.680529 
			CHANNELS 3 Xrotation Zrotation Yrotation
			JOINT neck
			{
				OFFSET 0.000000 10.207942 -0.272212 
				CHANNELS 3 Xrotation Zrotation Yrotation
				JOINT head
				{
					OFFSET 0.000000 3.130431 0.000000 
					CHANNELS 3 Xrotation Zrotation Yrotation
					End Site
					{
						OFFSET 0.000000 3.130435 0.000000 
					}
				}
			}
			JOINT lCollar
			{
				OFFSET 3.470700 6.669187 -0.816635 
				CHANNELS 3 Yrotation Zrotation Xrotation
				JOINT lShldr
				{
					OFFSET 3.198488 0.000000 0.000000 
					CHANNELS 3 Zrotation Yrotation Xrotation
					JOINT lForeArm
					{
						OFFSET 10.139888 0.000000 0.000000 
						CHANNELS 3 Yrotation Zrotation Xrotation
						JOINT lHand
						{
							OFFSET 8.370511 0.000000 0.000000 
							CHANNELS 3 Zrotation Yrotation Xrotation
							End Site
							{
								OFFSET 4.083176 0.000000 0.000000 
							}
						}
					}
				}
			}
			JOINT rCollar
			{
				OFFSET -3.470700 6.669187 -0.816635 
				CHANNELS 3 Yrotation Zrotation Xrotation
				JOINT rShldr
				{
					OFFSET -3.198488 0.000000 0.000000 
					CHANNELS 3 Zrotation Yrotation Xrotation
					JOINT rForeArm
					{
						OFFSET -10.139888 0.000000 0.000000 
						CHANNELS 3 Yrotation Zrotation Xrotation
						JOINT rHand
						{
							OFFSET -8.370511 0.000000 0.000000 
							CHANNELS 3 Zrotation Yrotation Xrotation
							End Site
							{
								OFFSET -4.083176 0.000000 0.000000 
							}
						}
					}
				}
			}
		}
	}
	JOINT lThigh
	{
		OFFSET 5.308129 -1.633274 1.361059 
		CHANNELS 3 Xrotation Zrotation Yrotation
		JOINT lShin
		{
			OFFSET -2.041588 -20.007561 0.000000 
			CHANNELS 3 Xrotation Zrotation Yrotation
			JOINT lFoot
			{
				OFFSET 0.000000 -19.190928 -1.224953 
				CHANNELS 3 Xrotation Yrotation Zrotation
				End Site
				{
					OFFSET 0.000000 -2.449906 4.627600 
				}
			}
		}
	}
	JOINT rThigh
	{
		OFFSET -5.308129 -1.633274 1.361059 
		CHANNELS 3 Xrotation Zrotation Yrotation
		JOINT rShin
		{
			OFFSET 2.041588 -20.007561 0.000000 
			CHANNELS 3 Xrotation Zrotation Yrotation
			JOINT rFoot
			{
				OFFSET 0.000000 -19.190928 -1.224953 
				CHANNELS 3 Xrotation Yrotation Zrotation
				End Site
				{
					OFFSET 0.000000 -2.449906 4.627600 
				}
			}
		}
	}
}
MOTION
Frames: 10
Frame Time: 0.033333
0.171723 51.784328 0.055234 2.155150 1.503852 -0.488369 0.000000 0.000000 0.000000 -4.576378 0.380841 0.556693 3.345386 -0.439418 -0.722710 -1.017093 -2.079739 -1.035892 -0.706996 10.002870 -3.530029 -10.451107 2.624076 -4.607445 0.143899 -0.456784 0.898484 -3.658305 -4.972077 -3.105871 1.221393 -8.186980 -3.578545 1.803054 -11.272776 -4.548420 -0.911514 2.311389 7.652198 1.886764 6.437782 -3.196216 5.326547 5.034724 5.200587 -2.102765 -2.045952 15.004151 -3.344858 0.147969 -5.166409 3.591009 -7.045877 -7.227102 1.093307 2.557528 -9.871438 -5.403397 -0.232330 4.588838 
0.385773 51.777168 0.167770 2.016257 1.533194 -0.195243 0.000000 0.000000 0.000000 -4.528978 0.341789 0.380911 3.277851 -0.439407 -0.830129 -1.060652 -1.884475 -1.006600 -0.899265 9.748849 -3.467085 -10.322691 2.476652 -4.593413 0.113991 -0.506378 0.742243 -3.592348 -5.086259 -3.113602 1.035281 -8.301335 -3.530484 1.646398 -11.257287 -4.393003 -0.887184 2.344020 7.671758 1.757444 6.616660 -3.214330 5.447578 4.754822 4.977827 -2.054513 -1.929356 15.359210 -3.420183 0.137044 -4.982029 3.969888 -7.228885 -7.352346 1.083766 2.448779 -9.959384 -5.541557 -0.259211 4.919390 
0.583215 51.802078 0.272558 1.784877 1.455076 -0.087862 0.000000 0.000000 0.000000 -4.421426 0.361320 0.380913 3.431176 -0.214816 -0.917999 -1.460175 -2.118869 -0.918785 -1.141357 9.798917 -3.349667 -10.430639 2.380859 -4.364409 0.117990 -0.583901 1.035299 -3.583332 -5.251652 -3.103282 1.065823 -8.330142 -3.442089 1.507049 -11.496868 -4.043638 -0.903425 2.376272 8.170542 2.206219 6.671243 -3.170841 5.699914 4.529713 4.836265 -2.031272 -1.844107 15.941593 -3.497537 0.142954 -4.927946 4.403562 -7.333099 -7.449959 0.936983 2.333453 -10.104214 -5.484584 -0.280963 5.249469 
0.776613 51.811504 0.392372 1.284867 1.367181 -0.175731 0.000000 0.000000 0.000000 -4.186481 0.371082 0.459038 3.828637 -0.039059 -0.751960 -1.711616 -1.777144 -0.859870 -1.414913 9.855213 -3.102163 -10.376919 2.460307 -3.998994 0.122628 -0.730030 1.191556 -3.502870 -5.286338 -3.107848 1.346378 -8.271205 -3.215307 1.344207 -11.726711 -3.687577 -0.950272 2.489977 7.975766 1.968527 6.559585 -3.182660 6.325270 4.344865 4.844496 -2.029519 -1.814153 16.204075 -3.697584 0.152602 -5.022142 5.057123 -7.420184 -7.625530 0.878230 2.256379 -9.941173 -5.526500 -0.306083 5.441314 
0.936287 51.818546 0.524031 0.832735 1.191385 -0.341723 0.000000 0.000000 0.000000 -3.824403 0.419905 0.507870 3.622689 0.048827 -0.419922 -1.352393 -0.986217 -0.859584 -1.393255 10.067947 -2.766914 -10.612607 2.290698 -4.407291 0.163002 -0.581559 1.621202 -3.335306 -4.954541 -3.133751 1.338142 -8.192304 -2.888151 1.247145 -11.494056 -4.134400 -1.071365 2.507959 7.555186 2.292347 6.539196 -3.167001 6.940896 4.286194 4.995396 -2.009235 -1.784550 16.329075 -3.906129 0.161474 -5.000511 5.631744 -7.408950 -7.761282 0.829654 2.255984 -9.885450 -5.543168 -0.294934 5.595288 
1.059957 51.820324 0.640596 0.675274 1.162080 -0.410072 0.000000 0.000000 0.000000 -3.806097 0.292958 0.488325 3.651132 0.253903 -0.273435 -1.131948 -1.005803 -0.605718 -1.142808 10.154083 -2.776833 -10.827365 1.945518 -4.890240 0.157711 -0.425695 1.504005 -3.492005 -4.796525 -3.121418 1.369655 -8.232079 -2.859117 1.120100 -11.374715 -4.309412 -1.120441 2.430409 8.434342 2.441837 6.684152 -3.142450 7.174959 4.091247 4.883778 -1.998605 -1.706334 16.746250 -4.022579 0.159401 -4.802085 5.926098 -7.537971 -7.953833 0.858853 2.261058 -9.668939 -5.648985 -0.309445 5.814167 
1.138229 51.820946 0.783714 0.461206 1.005831 -0.429621 0.000000 0.000000 0.000000 -3.816502 0.302729 0.351609 3.788480 0.244140 -0.136718 -1.185673 -0.820292 -0.400489 -1.275332 9.975244 -2.795898 -10.609260 2.127403 -4.754130 0.159155 -0.474452 1.523541 -3.734234 -4.839592 -3.108644 1.253383 -8.568840 -2.871716 1.298127 -10.989442 -4.331477 -1.098303 2.531799 8.484043 2.175740 6.708214 -3.162807 7.490912 4.107370 4.994188 -1.937470 -1.666370 16.868792 -4.184044 0.170999 -4.990145 6.354930 -7.439914 -7.960967 0.810154 2.210971 -9.603068 -5.776784 -0.322594 5.874452 
1.215223 51.820324 0.920814 0.237913 0.849586 -0.419876 0.000000 0.000000 0.000000 -3.865330 0.302729 0.351609 3.886369 0.410156 -0.048827 -0.846643 -0.966792 -0.175921 -1.478725 9.946583 -2.814852 -10.468760 2.225661 -4.546633 0.160971 -0.572294 1.445430 -3.513962 -4.739807 -3.133353 1.272024 -8.473145 -2.910325 0.936777 -10.908847 -4.080106 -1.023587 2.601311 8.562703 2.151130 6.599811 -3.179540 7.826743 4.099888 5.001436 -1.832795 -1.540445 16.908352 -4.383489 0.201825 -5.043772 6.762820 -7.398170 -8.053897 0.731927 2.282923 -9.647326 -5.820385 -0.386522 6.049417 
1.266422 51.818161 1.031723 0.082572 0.693339 -0.439421 0.000000 0.000000 0.000000 -3.923851 0.283197 0.390668 3.926181 0.390625 0.058659 -0.544943 -0.419917 -0.263736 -1.544987 10.048956 -2.854894 -10.427918 2.237596 -4.496747 0.183205 -0.590643 1.660262 -3.659667 -4.767253 -3.119905 1.292995 -8.495226 -2.960006 0.891540 -10.921418 -4.293249 -1.032341 2.474659 9.167931 2.095505 6.713996 -3.181199 7.867883 4.228007 5.155583 -1.174887 -1.557097 16.678331 -4.933274 0.238206 -5.376190 7.076239 -7.281605 -8.057560 0.654401 2.243478 -9.690262 -5.906001 -0.332223 5.989548 
1.286064 51.804203 1.130747 0.209268 0.488249 -0.654273 0.000000 0.000000 0.000000 -4.293280 0.351544 0.585986 4.181006 0.351560 0.214900 -0.760401 -0.214840 -0.351597 -1.509181 9.853256 -3.180609 -10.086843 2.345417 -4.190528 0.156644 -0.639981 1.777554 -3.640097 -4.766191 -3.121528 1.556904 -8.638165 -3.306099 0.692547 -11.150678 -3.477875 -1.042688 2.777807 8.417296 1.444309 6.774756 -3.234973 7.708929 4.392708 5.212628 -0.675302 -1.512433 16.904911 -5.335715 0.265210 -5.902388 7.036957 -7.087201 -7.824695 0.644228 2.146281 -9.700106 -5.967462 -0.334523 6.064126 
